# xmcd
#
# Track frame offsets:
#  150
#  19231
#  34758
#  41165
#  68539
#  83171
#  108965
#  129367
#  157088
#  170603
#  186302
#
# Disc length: 2846 seconds
#
# Revision: 0
# Processed by: cddbd v1.5.1PL2 Copyright (c) Steve Scherf et al.
# Submitted via: Collectorz.com_Music_Collector 6.9
#
DISCID=8e0b1c0b
DTITLE=Todd Snider - Mystic Theater, Petaluma, Ca - 30 June 2003
DYEAR=2003
DGENRE=Alt Country
TTITLE0=Tension > That's Amore
TTITLE1=Betty Was Black (Willie Was White)
TTITLE2=Aaron Allen Story
TTITLE3=Ballad Of The Devil's Backbone Tavern
TTITLE4=All My Life
TTITLE5=Tillamook County Jail
TTITLE6=Easy Money > It's Only Rock N Roll
TTITLE7=Ballad Of The Kingsmen
TTITLE8=Statistician's Blues
TTITLE9=Missing You
TTITLE10=Waco Moon > Old Chunk Of Coal
EXTD=
EXTT0=
EXTT1=
EXTT2=
EXTT3=
EXTT4=
EXTT5=
EXTT6=
EXTT7=
EXTT8=
EXTT9=
EXTT10=
PLAYORDER=
